<svg xmlns="http://www.w3.org/2000/svg" viewBox="0 0 1600 1000" preserveAspectRatio="xMidYMid slice"><defs><pattern id="rows" width="26" height="18" patternUnits="userSpaceOnUse" patternTransform="rotate(22)"><rect width="26" height="18" fill="#7d5e40"/><rect x="3" width="14.3" height="18" fill="#4b8a43"/><circle cx="7.8" cy="5" r="4.2" fill="#78ae57"/><circle cx="8.6" cy="14" r="3.6" fill="#78ae57"/></pattern><radialGradient id="vig"><stop offset=".55" stop-color="#000" stop-opacity="0"/><stop offset="1" stop-color="#000" stop-opacity=".35"/></radialGradient><filter id="blur"><feGaussianBlur stdDeviation="60"/></filter></defs><rect width="1600" height="1000" fill="url(#rows)"/><ellipse cx="23" cy="533" rx="168" ry="140" fill="#fff" opacity="0.13" filter="url(#blur)"/><ellipse cx="34" cy="56" rx="225" ry="277" fill="#fff" opacity="0.14" filter="url(#blur)"/><ellipse cx="239" cy="346" rx="388" ry="281" fill="#fff" opacity="0.08" filter="url(#blur)"/><ellipse cx="539" cy="352" rx="267" ry="152" fill="#000" opacity="0.13" filter="url(#blur)"/><ellipse cx="457" cy="312" rx="411" ry="207" fill="#000" opacity="0.07" filter="url(#blur)"/><ellipse cx="859" cy="501" rx="190" ry="218" fill="#000" opacity="0.10" filter="url(#blur)"/><path d="M-50 468 C 560 509, 1040 460, 1650 549" stroke="#b89a74" stroke-width="34" fill="none"/><path d="M-50 468 C 560 509, 1040 460, 1650 549" stroke="#cdb38e" stroke-width="16" fill="none" opacity=".7"/><rect width="1600" height="1000" fill="url(#vig)"/><g font-family="system-ui,sans-serif" font-size="22" fill="#fff" opacity=".85"><rect x="24" y="936" width="430" height="40" rx="6" fill="#000" opacity=".35"/><text x="40" y="963">Imagen de muestra: reemplazar por foto real</text></g></svg>