<svg xmlns="http://www.w3.org/2000/svg" viewBox="0 0 1600 1000" preserveAspectRatio="xMidYMid slice"><defs><pattern id="rows" width="30" height="18" patternUnits="userSpaceOnUse" patternTransform="rotate(65)"><rect width="30" height="18" fill="#7a5a3c"/><rect x="3" width="16.5" height="18" fill="#4a8744"/><circle cx="9.0" cy="5" r="4.2" fill="#77ad58"/><circle cx="9.9" cy="14" r="3.6" fill="#77ad58"/></pattern><radialGradient id="vig"><stop offset=".55" stop-color="#000" stop-opacity="0"/><stop offset="1" stop-color="#000" stop-opacity=".35"/></radialGradient><filter id="blur"><feGaussianBlur stdDeviation="60"/></filter></defs><rect width="1600" height="1000" fill="url(#rows)"/><ellipse cx="1213" cy="557" rx="216" ry="194" fill="#fff" opacity="0.13" filter="url(#blur)"/><ellipse cx="1281" cy="594" rx="183" ry="255" fill="#000" opacity="0.05" filter="url(#blur)"/><ellipse cx="531" cy="564" rx="269" ry="149" fill="#000" opacity="0.14" filter="url(#blur)"/><ellipse cx="1107" cy="856" rx="393" ry="201" fill="#000" opacity="0.11" filter="url(#blur)"/><ellipse cx="474" cy="650" rx="227" ry="233" fill="#fff" opacity="0.09" filter="url(#blur)"/><ellipse cx="1375" cy="795" rx="182" ry="140" fill="#fff" opacity="0.12" filter="url(#blur)"/><path d="M-50 705 C 560 609, 1040 292, 1650 143" stroke="#b89a74" stroke-width="34" fill="none"/><path d="M-50 705 C 560 609, 1040 292, 1650 143" stroke="#cdb38e" stroke-width="16" fill="none" opacity=".7"/><rect width="1600" height="1000" fill="url(#vig)"/><g font-family="system-ui,sans-serif" font-size="22" fill="#fff" opacity=".85"><rect x="24" y="936" width="430" height="40" rx="6" fill="#000" opacity=".35"/><text x="40" y="963">Imagen de muestra: reemplazar por foto real</text></g></svg>